<svg width="120" height="50" viewBox="0 0 895 219" fill="none" xmlns="http://www.w3.org/2000/svg">
<g filter="url(#filter0_d_76_2)">
<path d="M72.1152 203.197C59.8105 203.197 48.9707 201.977 39.5957 199.535C30.3184 196.996 23.1895 193.92 18.209 190.307C13.3262 186.693 10.8848 183.275 10.8848 180.053C10.8848 177.514 11.8125 174.389 13.668 170.678C15.6211 166.967 17.916 163.793 20.5527 161.156C23.1895 158.422 25.3867 157.055 27.1445 157.055C28.2188 157.055 30.5137 157.982 34.0293 159.838C39.3027 162.572 44.2832 164.77 48.9707 166.43C53.7559 168.09 59.2246 168.92 65.377 168.92C72.2129 168.92 77.9746 167.602 82.6621 164.965C87.4473 162.23 89.8398 157.494 89.8398 150.756C89.8398 146.85 88.6191 143.48 86.1777 140.648C83.7363 137.816 80.6113 135.424 76.8027 133.471C72.9941 131.518 67.8184 129.223 61.2754 126.586L49.7031 121.605C42.6719 118.188 36.6172 114.428 31.5391 110.326C26.5586 106.225 22.457 100.805 19.2344 94.0664C16.1094 87.3281 14.5469 79.0762 14.5469 69.3105C14.5469 57.3965 17.4766 47.4844 23.3359 39.5742C29.1953 31.6641 36.8125 25.8535 46.1875 22.1426C55.5625 18.4316 65.6211 16.5762 76.3633 16.5762C85.1523 16.5762 93.1113 17.5039 100.24 19.3594C107.369 21.1172 112.936 23.4121 116.939 26.2441C121.041 29.0762 123.092 31.9082 123.092 34.7402C123.092 37.084 122.311 40.1113 120.748 43.8223C119.283 47.4355 117.428 50.6094 115.182 53.3438C112.936 56.0781 110.836 57.4453 108.883 57.4453C108.004 57.4453 106.441 56.957 104.195 55.9805C100.582 54.5156 96.9199 53.3438 93.209 52.4648C89.5957 51.4883 85.1523 51 79.8789 51C70.7969 51 64.498 52.4648 60.9824 55.3945C57.4668 58.2266 55.709 61.5957 55.709 65.502C55.709 69.9941 56.8809 73.7539 59.2246 76.7812C61.666 79.8086 64.6934 82.2988 68.3066 84.252C72.0176 86.2051 77.1445 88.4512 83.6875 90.9902C93.5508 95.1895 101.607 99.1934 107.857 103.002C114.107 106.713 119.479 112.084 123.971 119.115C128.561 126.146 130.855 135.131 130.855 146.068C130.855 159.447 128.023 170.434 122.359 179.027C116.793 187.523 109.566 193.676 100.68 197.484C91.8906 201.293 82.3691 203.197 72.1152 203.197ZM209.811 203.197C189.205 203.197 173.482 197.143 162.643 185.033C151.9 172.924 146.529 155.492 146.529 132.738C146.529 110.082 151.9 92.748 162.643 80.7363C173.482 68.7246 189.205 62.7188 209.811 62.7188C230.416 62.7188 246.041 68.7246 256.686 80.7363C267.428 92.6504 272.799 109.984 272.799 132.738C272.799 155.492 267.428 172.924 256.686 185.033C246.041 197.143 230.416 203.197 209.811 203.197ZM209.811 172.582C218.014 172.582 224.02 169.262 227.828 162.621C231.734 155.98 233.688 146.02 233.688 132.738C233.688 119.555 231.734 109.643 227.828 103.002C224.02 96.3613 218.014 93.041 209.811 93.041C193.6 93.041 185.494 106.273 185.494 132.738C185.494 145.922 187.447 155.883 191.354 162.621C195.357 169.262 201.51 172.582 209.811 172.582ZM379 202.465C352.828 202.465 332.906 194.945 319.234 179.906C305.562 164.77 298.727 141.918 298.727 111.352C298.727 48.4609 326.803 17.0156 382.955 17.0156C391.158 17.0156 399.117 17.8945 406.832 19.6523C414.547 21.3125 420.797 23.4121 425.582 25.9512C430.367 28.4902 432.76 30.9316 432.76 33.2754C432.76 34.7402 432.223 36.6934 431.148 39.1348C430.172 41.5762 429 43.7246 427.633 45.5801C426.266 47.4355 425.045 48.3633 423.971 48.3633C423.482 48.3633 422.115 47.7285 419.869 46.459C414.791 43.7246 409.469 41.4297 403.902 39.5742C398.336 37.7187 391.549 36.791 383.541 36.791C361.471 36.791 345.748 42.8945 336.373 55.1016C326.998 67.2109 322.311 85.1797 322.311 109.008C322.311 131.469 326.656 149.389 335.348 162.768C344.137 176.049 359.273 182.689 380.758 182.689C387.301 182.689 393.6 182.396 399.654 181.811C405.807 181.127 410.689 180.297 414.303 179.32V126.732H383.834C381.979 126.732 380.611 126.146 379.732 124.975C378.951 123.705 378.561 121.703 378.561 118.969V114.721C378.561 111.986 378.951 110.033 379.732 108.861C380.611 107.592 381.979 106.957 383.834 106.957H429.391C432.125 106.957 434.127 107.592 435.396 108.861C436.666 110.033 437.301 111.986 437.301 114.721V183.715C437.301 190.453 431.832 195.287 420.895 198.217C409.957 201.049 395.992 202.465 379 202.465ZM533.688 202.465C514.059 202.465 499.068 196.605 488.717 184.887C478.463 173.07 473.336 155.932 473.336 133.471C473.336 111.01 478.561 93.7246 489.01 81.6152C499.459 69.4082 514.352 63.3047 533.688 63.3047C552.828 63.3047 567.477 69.3594 577.633 81.4688C587.789 93.4805 592.867 110.814 592.867 133.471C592.867 156.029 587.838 173.168 577.779 184.887C567.818 196.605 553.121 202.465 533.688 202.465ZM532.955 183.715C545.65 183.715 555.025 179.613 561.08 171.41C567.135 163.109 570.162 150.316 570.162 133.031C570.162 115.648 567.135 102.807 561.08 94.5059C555.025 86.2051 545.65 82.0547 532.955 82.0547C520.357 82.0547 511.08 86.2051 505.123 94.5059C499.166 102.709 496.188 115.551 496.188 133.031C496.188 150.414 499.117 163.207 504.977 171.41C510.934 179.613 520.26 183.715 532.955 183.715ZM681.93 202.465C662.301 202.465 647.311 196.605 636.959 184.887C626.705 173.07 621.578 155.932 621.578 133.471C621.578 111.01 626.803 93.7246 637.252 81.6152C647.701 69.4082 662.594 63.3047 681.93 63.3047C701.07 63.3047 715.719 69.3594 725.875 81.4688C736.031 93.4805 741.109 110.814 741.109 133.471C741.109 156.029 736.08 173.168 726.021 184.887C716.061 196.605 701.363 202.465 681.93 202.465ZM681.197 183.715C693.893 183.715 703.268 179.613 709.322 171.41C715.377 163.109 718.404 150.316 718.404 133.031C718.404 115.648 715.377 102.807 709.322 94.5059C703.268 86.2051 693.893 82.0547 681.197 82.0547C668.6 82.0547 659.322 86.2051 653.365 94.5059C647.408 102.709 644.43 115.551 644.43 133.031C644.43 150.414 647.359 163.207 653.219 171.41C659.176 179.613 668.502 183.715 681.197 183.715ZM819.479 202.465C809.322 202.465 800.436 199.535 792.818 193.676C785.201 187.719 779.293 179.467 775.094 168.92C770.992 158.373 768.941 146.41 768.941 133.031C768.941 118.285 771.139 105.688 775.533 95.2383C780.025 84.6914 786.275 76.7324 794.283 71.3613C802.291 65.9902 811.52 63.3047 821.969 63.3047C829.488 63.3047 836.129 64.4277 841.891 66.6738C847.75 68.9199 853.512 72.1914 859.176 76.4883V10.8633C859.176 7.05469 862.594 5.15039 869.43 5.15039H870.602C877.535 5.15039 881.002 7.05469 881.002 10.8633V162.475C881.002 173.803 881.539 182.006 882.613 187.084C883.688 192.064 884.225 194.799 884.225 195.287C884.225 197.436 882.564 198.998 879.244 199.975C876.021 200.854 872.994 201.293 870.162 201.293C868.209 201.293 866.646 200.365 865.475 198.51C864.303 196.654 863.473 194.799 862.984 192.943C862.594 190.99 861.91 187.67 860.934 182.982C848.531 195.971 834.713 202.465 819.479 202.465ZM824.02 183.568C829.781 183.568 835.738 182.006 841.891 178.881C848.141 175.756 853.902 171.312 859.176 165.551V94.2129C849.801 86.4004 839.107 82.4941 827.096 82.4941C815.475 82.7871 806.686 87.0352 800.729 95.2383C794.869 103.441 791.939 115.355 791.939 130.98C791.939 147.777 794.674 160.766 800.143 169.945C805.709 179.027 813.668 183.568 824.02 183.568Z" fill="#B5E2FA"/>
</g>
<defs>
<filter id="filter0_d_76_2" x="0.884766" y="0.150391" width="893.34" height="218.047" filterUnits="userSpaceOnUse" color-interpolation-filters="sRGB">
<feFlood flood-opacity="0" result="BackgroundImageFix"/>
<feColorMatrix in="SourceAlpha" type="matrix" values="0 0 0 0 0 0 0 0 0 0 0 0 0 0 0 0 0 0 127 0" result="hardAlpha"/>
<feOffset dy="5"/>
<feGaussianBlur stdDeviation="5"/>
<feComposite in2="hardAlpha" operator="out"/>
<feColorMatrix type="matrix" values="0 0 0 0 0.541618 0 0 0 0 0.541618 0 0 0 0 0.541618 0 0 0 0.25 0"/>
<feBlend mode="normal" in2="BackgroundImageFix" result="effect1_dropShadow_76_2"/>
<feBlend mode="normal" in="SourceGraphic" in2="effect1_dropShadow_76_2" result="shape"/>
</filter>
</defs>
</svg>
